ffmpeg version 2.8.11-0ubuntu0.16.04.1 Copyright (c) 2000-2017 the FFmpeg developers
  built with gcc 5.4.0 (Ubuntu 5.4.0-6ubuntu1~16.04.4) 20160609
  configuration: --prefix=/usr --extra-version=0ubuntu0.16.04.1 --build-suffix=-ffmpeg --toolchain=hardened --libdir=/usr/lib/x86_64-linux-gnu --incdir=/usr/include/x86_64-linux-gnu --cc=cc --cxx=g++ --enable-gpl --enable-shared --disable-stripping --disable-decoder=libopenjpeg --disable-decoder=libschroedinger --enable-avresample --enable-avisynth --enable-gnutls --enable-ladspa --enable-libass --enable-libbluray --enable-libbs2b --enable-libcaca --enable-libcdio --enable-libflite --enable-libfontconfig --enable-libfreetype --enable-libfribidi --enable-libgme --enable-libgsm --enable-libmodplug --enable-libmp3lame --enable-libopenjpeg --enable-libopus --enable-libpulse --enable-librtmp --enable-libschroedinger --enable-libshine --enable-libsnappy --enable-libsoxr --enable-libspeex --enable-libssh --enable-libtheora --enable-libtwolame --enable-libvorbis --enable-libvpx --enable-libwavpack --enable-libwebp --enable-libx265 --enable-libxvid --enable-libzvbi --enable-openal --enable-opengl --enable-x11grab --enable-libdc1394 --enable-libiec61883 --enable-libzmq --enable-frei0r --enable-libx264 --enable-libopencv
  libavutil      54. 31.100 / 54. 31.100
  libavcodec     56. 60.100 / 56. 60.100
  libavformat    56. 40.101 / 56. 40.101
  libavdevice    56.  4.100 / 56.  4.100
  libavfilter     5. 40.101 /  5. 40.101
  libavresample   2.  1.  0 /  2.  1.  0
  libswscale      3.  1.101 /  3.  1.101
  libswresample   1.  2.101 /  1.  2.101
  libpostproc    53.  3.100 / 53.  3.100
[mp3 @ 0xbf38c0] Unknown attached picture mimetype: ('image/png', None), skipping.
[mp3 @ 0xbf38c0] Skipping 0 bytes of junk at 17522.
Input #0, mp3, from 'jan-kochanowski-treny-tren-xiii.mp3':
  Metadata:
    title           : Jan Kochanowski, "Treny", Tren XIII
    artist          : Paweł Paprocki
    album           : Wolne Lektury
    encoder         : Lavf53.21.0
    genre           : Speech
    originator_reference: gqyiiaqpFPnaaaGk
    date            : 2008-10-20
    performer       : Gosia Kozera
    album_artist    : Fundacja Nowoczesna Polska
    time_reference  : 1109429498
    copyright       : 2008 Fundacja Nowoczesna Polska. Licensed to the public under http://creativecommons.org/licenses/by-sa/3.0/deed.pl verify at http://wolnelektury.pl/katalog/lektura/treny-tren-xiii/
    creation_time   : 0019-00-36
    encoded_by      : Pro Tools
    publisher       : Fundacja Nowoczesna Polska
  Duration: 00:01:33.34, start: 0.000000, bitrate: 65 kb/s
    Stream #0:0: Audio: mp3, 44100 Hz, mono, s16p, 64 kb/s
Output #0, null, to 'pipe:':
  Metadata:
    title           : Jan Kochanowski, "Treny", Tren XIII
    artist          : Paweł Paprocki
    album           : Wolne Lektury
    publisher       : Fundacja Nowoczesna Polska
    genre           : Speech
    originator_reference: gqyiiaqpFPnaaaGk
    date            : 2008-10-20
    performer       : Gosia Kozera
    album_artist    : Fundacja Nowoczesna Polska
    time_reference  : 1109429498
    copyright       : 2008 Fundacja Nowoczesna Polska. Licensed to the public under http://creativecommons.org/licenses/by-sa/3.0/deed.pl verify at http://wolnelektury.pl/katalog/lektura/treny-tren-xiii/
    encoded_by      : Pro Tools
    encoder         : Lavf56.40.101
    Stream #0:0: Audio: pcm_s16le, 44100 Hz, mono, s16, 705 kb/s
    Metadata:
      encoder         : Lavc56.60.100 pcm_s16le
Stream mapping:
  Stream #0:0 -> #0:0 (mp3 (native) -> pcm_s16le (native))
Press [q] to stop, [?] for help
[silencedetect @ 0xc111c0] silence_start: -0.00367347
[silencedetect @ 0xc111c0] silence_end: 0.731429 | silence_duration: 0.735102
[silencedetect @ 0xc111c0] silence_start: 1.77265
[silencedetect @ 0xc111c0] silence_end: 2.37714 | silence_duration: 0.60449
[silencedetect @ 0xc111c0] silence_start: 2.73918
[silencedetect @ 0xc111c0] silence_end: 4.17959 | silence_duration: 1.44041
[silencedetect @ 0xc111c0] silence_start: 5.35143
[silencedetect @ 0xc111c0] silence_end: 7.96735 | silence_duration: 2.61592
[silencedetect @ 0xc111c0] silence_start: 9.63551
[silencedetect @ 0xc111c0] silence_end: 11.0498 | silence_duration: 1.41429
[silencedetect @ 0xc111c0] silence_start: 13.371
[silencedetect @ 0xc111c0] silence_end: 14.1061 | silence_duration: 0.735102
[silencedetect @ 0xc111c0] silence_start: 15.1735
[silencedetect @ 0xc111c0] silence_end: 17.0318 | silence_duration: 1.85837
[silencedetect @ 0xc111c0] silence_start: 20.0322
[silencedetect @ 0xc111c0] silence_end: 20.5584 | silence_duration: 0.526122
[silencedetect @ 0xc111c0] silence_start: 22.8796
[silencedetect @ 0xc111c0] silence_end: 24.5812 | silence_duration: 1.70163
[silencedetect @ 0xc111c0] silence_start: 27.7122
[silencedetect @ 0xc111c0] silence_end: 28.6041 | silence_duration: 0.891837
[silencedetect @ 0xc111c0] silence_start: 31.6306
[silencedetect @ 0xc111c0] silence_end: 32.2612 | silence_duration: 0.630612
[silencedetect @ 0xc111c0] silence_start: 33.4853
[silencedetect @ 0xc111c0] silence_end: 34.2988 | silence_duration: 0.813469
[silencedetect @ 0xc111c0] silence_start: 38.7882
[silencedetect @ 0xc111c0] silence_end: 40.4637 | silence_duration: 1.67551
[silencedetect @ 0xc111c0] silence_start: 43.02
[silencedetect @ 0xc111c0] silence_end: 44.0163 | silence_duration: 0.996327
[silencedetect @ 0xc111c0] silence_start: 49.4461
[silencedetect @ 0xc111c0] silence_end: 50.5731 | silence_duration: 1.12694
[silencedetect @ 0xc111c0] silence_start: 52.7898
[silencedetect @ 0xc111c0] silence_end: 54.2302 | silence_duration: 1.44041
[silencedetect @ 0xc111c0] silence_start: 55.1147
[silencedetect @ 0xc111c0] silence_end: 55.6147 | silence_duration: 0.5
[silencedetect @ 0xc111c0] silence_start: 57.7792
[silencedetect @ 0xc111c0] silence_end: 59.2718 | silence_duration: 1.49265
[silencedetect @ 0xc111c0] silence_start: 62.0894
[silencedetect @ 0xc111c0] silence_end: 65.0971 | silence_duration: 3.00776
[silencedetect @ 0xc111c0] silence_start: 68.2543
[silencedetect @ 0xc111c0] silence_end: 69.0939 | silence_duration: 0.839592
[silencedetect @ 0xc111c0] silence_start: 72.1204
[silencedetect @ 0xc111c0] silence_end: 73.7437 | silence_duration: 1.62327
[silencedetect @ 0xc111c0] silence_start: 76.2216
[silencedetect @ 0xc111c0] silence_end: 77.009 | silence_duration: 0.787347
[silencedetect @ 0xc111c0] silence_start: 81.42
[silencedetect @ 0xc111c0] silence_end: 83.0694 | silence_duration: 1.64939
[silencedetect @ 0xc111c0] silence_start: 85.9392
[silencedetect @ 0xc111c0] silence_end: 86.8049 | silence_duration: 0.865714
[silencedetect @ 0xc111c0] silence_start: 87.82
[silencedetect @ 0xc111c0] silence_end: 88.6073 | silence_duration: 0.787347
[silencedetect @ 0xc111c0] silence_start: 91.0592
size=N/A time=00:01:33.33 bitrate=N/A    
video:0kB audio:8039kB subtitle:0kB other streams:0kB global headers:0kB muxing overhead: unknown
